<?xml version="1.0" encoding="UTF-8" standalone="no" ?>
<!DOCTYPE svg PUBLIC "-//W3C//DTD SVG 1.1//EN" "http://www.w3.org/Graphics/SVG/1.1/DTD/svg11.dtd">
<svg xmlns="http://www.w3.org/2000/svg" xmlns:xlink="http://www.w3.org/1999/xlink" version="1.1" width="1280" height="1024" viewBox="0 0 1280 1024" xml:space="preserve">
<desc>Created with Fabric.js 5.3.0</desc>
<defs>
</defs>
<g transform="matrix(1 0 0 1 640 512)" id="background-logo"  >
<rect style="stroke: none; stroke-width: 0; stroke-dasharray: none; stroke-linecap: butt; stroke-dashoffset: 0; stroke-linejoin: miter; stroke-miterlimit: 4; fill: rgb(255,255,255); fill-opacity: 0; fill-rule: nonzero; opacity: 1;"  paint-order="stroke"  x="-640" y="-512" rx="0" ry="0" width="1280" height="1024" />
</g>
<g transform="matrix(1.3821964846387007 0 0 1.3821964846387007 299.0696971516421 512.5953516090585)" id="logo-logo"  >
<g style=""  paint-order="stroke"   >
		<g transform="matrix(0.29316442505658885 0 0 -0.29316442505658885 0 0)"  >
<path style="stroke: none; stroke-width: 1; stroke-dasharray: none; stroke-linecap: butt; stroke-dashoffset: 0; stroke-linejoin: miter; stroke-miterlimit: 4; fill: rgb(33,33,33); fill-rule: nonzero; opacity: 1;"  paint-order="stroke"  transform=" translate(-415.8205, -480.1775)" d="M 735.691 295.488 L 415.82 110.801 L 95.9375 295.488 L 95.9375 664.859 L 415.82 849.547 L 735.691 664.859 Z M 415.82 960.355 L 0 720.262 L 0 240.09 L 415.82 0 L 831.641 240.09 L 831.641 720.262 L 415.82 960.355" stroke-linecap="round" />
</g>
		<g transform="matrix(0.29316442505658885 0 0 -0.29316442505658885 -0.0007329110626415059 -13.456393692309916)"  >
<path style="stroke: none; stroke-width: 1; stroke-dasharray: none; stroke-linecap: butt; stroke-dashoffset: 0; stroke-linejoin: miter; stroke-miterlimit: 4; fill: rgb(50,50,50); fill-rule: nonzero; opacity: 1;"  paint-order="stroke"  transform=" translate(-415.8180000000001, -526.078)" d="M 233.281 535.43 C 235.309 532.871 317.672 407.89799999999997 320.238 404.26199999999994 C 322.266 402.3589999999999 323.609 399.55099999999993 323.609 396.56999999999994 C 323.609 390.6479999999999 318.75 385.9099999999999 312.96099999999996 385.9099999999999 L 312.828 385.9099999999999 C 312.012 385.9099999999999 311.07399999999996 386.06999999999994 310.12899999999996 386.1989999999999 C 308.246 386.5899999999999 286.79699999999997 390.2299999999999 268.191 393.4689999999999 C 278.453 315.9489999999999 327.652 283.7499999999999 372.676 270.6479999999999 L 372.676 456.43 L 363.92199999999997 456.43 C 352.59799999999996 456.43 343.42199999999997 465.609 343.42199999999997 476.922 L 343.42199999999997 480.69100000000003 C 343.42199999999997 492.02000000000004 352.59799999999996 501.19100000000003 363.92199999999997 501.19100000000003 L 372.676 501.19100000000003 L 372.676 559.02 C 353.402 572.922 341.801 595.43 341.801 619.148 C 341.801 660.0120000000001 374.965 693.301 415.82 693.301 C 456.67199999999997 693.301 489.836 660.0120000000001 489.836 619.148 C 489.836 595.4300000000001 478.242 572.922 458.96500000000003 559.02 L 458.96500000000003 501.191 L 467.71500000000003 501.191 C 479.055 501.191 488.21500000000003 492.02 488.21500000000003 480.691 L 488.21500000000003 476.92199999999997 C 488.21500000000003 465.609 479.055 456.42999999999995 467.71500000000003 456.42999999999995 L 458.96500000000003 456.42999999999995 L 458.96500000000003 270.648 C 503.992 283.75 553.203 315.949 563.445 393.46900000000005 C 544.844 390.2300000000001 523.4060000000001 386.59000000000003 521.5160000000001 386.19900000000007 C 520.5740000000001 386.07000000000005 519.6290000000001 385.9100000000001 518.816 385.9100000000001 L 518.6840000000001 385.9100000000001 C 512.8910000000001 385.9100000000001 508.0270000000001 390.6480000000001 508.0270000000001 396.5700000000001 C 508.0270000000001 399.5510000000001 509.3870000000001 402.3590000000001 511.4060000000001 404.2620000000001 C 513.9650000000001 407.89800000000014 596.3400000000001 532.8710000000001 598.3590000000002 535.4300000000001 C 606.0860000000001 525.1210000000001 657.9960000000001 445.73800000000006 676.7770000000002 416.9800000000001 L 676.7770000000002 630.801 L 415.82 781.508 L 154.859 630.801 L 154.859 416.961 C 173.62900000000002 445.719 225.55900000000003 525.121 233.281 535.4300000000001" stroke-linecap="round" />
</g>
		<g transform="matrix(0.29316442505658885 0 0 -0.29316442505658885 0.0011726577001809346 -40.879287176528265)"  >
<path style="stroke: none; stroke-width: 1; stroke-dasharray: none; stroke-linecap: butt; stroke-dashoffset: 0; stroke-linejoin: miter; stroke-miterlimit: 4; fill: rgb(50,50,50); fill-rule: nonzero; opacity: 1;"  paint-order="stroke"  transform=" translate(-415.8245, -619.6189999999999)" d="M 374.43 619.559 C 374.43 596.641 393.043 578.16 415.82 578.16 C 438.613 578.16 457.219 596.641 457.219 619.559 C 457.219 642.4689999999999 438.613 661.078 415.82 661.078 C 393.043 661.078 374.43 642.4689999999999 374.43 619.559" stroke-linecap="round" />
</g>
		<g transform="matrix(0.29316442505658885 0 0 -0.29316442505658885 -62.2116897301961 42.707460531181226)"  >
<path style="stroke: none; stroke-width: 1; stroke-dasharray: none; stroke-linecap: butt; stroke-dashoffset: 0; stroke-linejoin: miter; stroke-miterlimit: 4; fill: rgb(50,50,50); fill-rule: nonzero; opacity: 1;"  paint-order="stroke"  transform=" translate(-203.61299999999997, -334.5)" d="M 199.707 395.762 C 181.105 392.648 160.078 389.012 158.051 388.621 C 157.25 388.359 156.301 388.219 155.35199999999998 388.219 C 155.176 388.219 155.027 388.32 154.85899999999998 388.328 L 154.85899999999998 329.551 L 252.36699999999996 273.238 C 219.87899999999996 309.102 202.01599999999996 350.281 199.70699999999997 395.762" stroke-linecap="round" />
</g>
		<g transform="matrix(0.29316442505658885 0 0 -0.29316442505658885 62.21432821002162 42.7057015446309)"  >
<path style="stroke: none; stroke-width: 1; stroke-dasharray: none; stroke-linecap: butt; stroke-dashoffset: 0; stroke-linejoin: miter; stroke-miterlimit: 4; fill: rgb(50,50,50); fill-rule: nonzero; opacity: 1;"  paint-order="stroke"  transform=" translate(-628.037, -334.506)" d="M 676.289 388.219 C 675.3439999999999 388.219 674.395 388.359 673.586 388.621 C 671.563 389.012 650.535 392.64799999999997 631.934 395.762 C 629.629 350.289 611.7769999999999 309.109 579.297 273.25 L 676.777 329.551 L 676.777 388.328 C 676.6020000000001 388.32 676.4530000000001 388.219 676.289 388.219" stroke-linecap="round" />
</g>
		<g transform="matrix(0.29316442505658885 0 0 -0.29316442505658885 -0.002345315400475556 83.15389043411346)"  >
<path style="stroke: none; stroke-width: 1; stroke-dasharray: none; stroke-linecap: butt; stroke-dashoffset: 0; stroke-linejoin: miter; stroke-miterlimit: 4; fill: rgb(50,50,50); fill-rule: nonzero; opacity: 1;"  paint-order="stroke"  transform=" translate(-415.8125, -196.53499999999997)" d="M 445.352 207.832 C 444.813 207.71099999999998 431.72999999999996 206.35899999999998 415.82 206.23 C 399.918 206.35899999999998 386.832 207.71099999999998 386.305 207.832 C 375.605 209.191 364.98 211.46099999999998 354.535 214.23 L 415.82000000000005 178.83999999999997 L 477.09000000000003 214.22999999999996 C 466.648 211.46099999999996 456.047 209.19099999999997 445.35200000000003 207.83199999999997" stroke-linecap="round" />
</g>
</g>
</g>
<g transform="matrix(1.9211538461538462 0 0 1.9211538461538462 828.6386876206717 514.1537286693058)" id="text-logo"  >
<g style=""  paint-order="stroke"   >
		<g transform="matrix(1 0 0 1 0 -36.43324999999999)" id="text-logo-path-0"  >
<path style="stroke: none; stroke-width: 0; stroke-dasharray: none; stroke-linecap: butt; stroke-dashoffset: 0; stroke-linejoin: miter; stroke-miterlimit: 4; fill: rgb(33,33,33); fill-rule: nonzero; opacity: 1;"  paint-order="stroke"  transform=" translate(-167.58499999999998, 18.81)" d="M 19.47 -37.62 L 3.41 -37.62 L 3.41 0 L 19.47 0 C 30.2 0 38.77 -7.92 38.77 -18.64 C 38.77 -29.32 30.2 -37.62 19.47 -37.62 Z M 12.6 -8.63 L 12.6 -28.93 L 19.47 -28.93 C 25.14 -28.93 29.64 -24.36 29.64 -18.75 C 29.64 -13.09 25.02 -8.63 19.47 -8.63 Z M 64.9 0 L 74.69 0 L 60.89 -37.62 L 51.1 -37.62 L 37.35 0 L 47.14 0 L 49.56 -6.54 L 62.48 -6.54 Z M 52.69 -15.23 L 56.05 -24.31 L 59.29 -15.23 Z M 97.3 -28.93 L 97.3 -37.62 L 69.19 -37.62 L 69.19 -28.93 L 78.71 -28.93 L 78.71 0 L 87.84 0 L 87.84 -28.93 Z M 120.78 0 L 130.57 0 L 116.77 -37.62 L 106.98 -37.62 L 93.23 0 L 103.02 0 L 105.44 -6.54 L 118.36 -6.54 Z M 108.57 -15.23 L 111.93 -24.31 L 115.17 -15.23 Z M 163.9 -37.62 L 147.84 -37.62 L 147.84 0 L 163.9 0 C 174.63 0 183.21 -7.92 183.21 -18.64 C 183.21 -29.32 174.63 -37.62 163.9 -37.62 Z M 157.03 -8.63 L 157.03 -28.93 L 163.9 -28.93 C 169.56 -28.93 174.08 -24.36 174.08 -18.75 C 174.08 -13.09 169.46 -8.63 163.9 -8.63 Z M 201.96 -12.1 L 208.72 0 L 219.18 0 L 211.31 -14.19 C 214.94 -16.55 217.03 -20.57 217.03 -24.86 C 217.03 -31.96 211.37 -37.62 204.32 -37.62 L 188.38 -37.62 L 188.38 0 L 197.56 0 L 197.56 -12.1 Z M 197.56 -20.79 L 197.56 -28.93 L 204.32 -28.93 C 206.63 -28.93 208.4 -27.17 208.4 -24.86 C 208.4 -22.66 206.53 -20.79 204.32 -20.79 Z M 221.81 -37.62 L 221.81 0 L 231 0 L 231 -37.62 Z M 260.2 -37.62 L 252.12 -13.42 L 244.14 -37.62 L 234.52 -37.62 L 247 0 L 257.34 0 L 269.83 -37.62 Z M 281.38 -8.63 L 281.38 -14.9 L 294.47 -14.9 L 294.47 -23.54 L 281.38 -23.54 L 281.38 -28.93 L 295.79 -28.93 L 295.79 -37.62 L 272.19 -37.62 L 272.19 0 L 296.06 0 L 296.06 -8.63 Z M 322.57 -37.62 L 322.57 -18.48 L 310.37 -37.62 L 301.18 -37.62 L 301.18 0 L 310.37 0 L 310.37 -21.5 L 324.12 0 L 331.76 0 L 331.76 -37.62 Z" stroke-linecap="round" />
</g>
		<g transform="matrix(1 0 0 1 -11.192499999999995 35.85325)" id="text-logo-path-1"  >
<path style="stroke: none; stroke-width: 0; stroke-dasharray: none; stroke-linecap: butt; stroke-dashoffset: 0; stroke-linejoin: miter; stroke-miterlimit: 4; fill: rgb(33,33,33); fill-rule: nonzero; opacity: 1;"  paint-order="stroke"  transform=" translate(-156.39000000000001, 18.619999999999997)" d="M 17.82 -37.62 L 3.46 -37.62 L 3.46 0 L 12.6 0 L 12.6 -12.1 L 17.82 -12.1 C 24.91 -12.1 30.64 -17.82 30.64 -24.86 C 30.64 -31.9 24.91 -37.62 17.82 -37.62 Z M 12.6 -20.79 L 12.6 -28.93 L 17.82 -28.93 C 20.18 -28.93 21.89 -27.23 21.89 -24.86 C 21.89 -22.55 20.13 -20.79 17.82 -20.79 Z M 51.37 0.77 C 62.15 0.77 70.73 -7.97 70.73 -18.64 C 70.73 -29.48 62.09 -38.01 51.37 -38.01 C 40.59 -38.01 31.96 -29.32 31.96 -18.64 C 31.96 -8.03 40.64 0.77 51.37 0.77 Z M 41.09 -18.64 C 41.09 -24.25 45.81 -28.88 51.37 -28.88 C 57.03 -28.88 61.55 -24.25 61.55 -18.64 C 61.55 -13.04 57.03 -8.42 51.37 -8.42 C 45.76 -8.42 41.09 -13.09 41.09 -18.64 Z M 88.33 -12.1 L 95.1 0 L 105.55 0 L 97.68 -14.19 C 101.31 -16.55 103.4 -20.57 103.4 -24.86 C 103.4 -31.96 97.74 -37.62 90.7 -37.62 L 74.75 -37.62 L 74.75 0 L 83.93 0 L 83.93 -12.1 Z M 83.93 -20.79 L 83.93 -28.93 L 90.7 -28.93 C 93.01 -28.93 94.77 -27.17 94.77 -24.86 C 94.77 -22.66 92.9 -20.79 90.7 -20.79 Z M 134.04 -28.93 L 134.04 -37.62 L 105.93 -37.62 L 105.93 -28.93 L 115.45 -28.93 L 115.45 0 L 124.58 0 L 124.58 -28.93 Z M 151.86 -37.62 L 151.86 0 L 161.04 0 L 161.04 -37.62 Z M 189.26 -37.62 L 189.26 -18.48 L 177.05 -37.62 L 167.86 -37.62 L 167.86 0 L 177.05 0 L 177.05 -21.5 L 190.8 0 L 198.44 0 L 198.44 -37.62 Z M 221.27 -37.62 L 205.21 -37.62 L 205.21 0 L 221.27 0 C 231.99 0 240.57 -7.92 240.57 -18.64 C 240.57 -29.32 231.99 -37.62 221.27 -37.62 Z M 214.39 -8.63 L 214.39 -28.93 L 221.27 -28.93 C 226.93 -28.93 231.44 -24.36 231.44 -18.75 C 231.44 -13.09 226.82 -8.63 221.27 -8.63 Z M 254.93 -8.63 L 254.93 -14.9 L 268.01 -14.9 L 268.01 -23.54 L 254.93 -23.54 L 254.93 -28.93 L 269.34 -28.93 L 269.34 -37.62 L 245.74 -37.62 L 245.74 0 L 269.61 0 L 269.61 -8.63 Z M 309.32 -37.62 L 298.43 -37.62 L 290.73 -25.63 L 282.98 -37.62 L 272.03 -37.62 L 284.24 -18.7 L 272.19 0 L 283.14 0 L 290.73 -11.77 L 298.26 0 L 309.15 0 L 297.11 -18.7 Z" stroke-linecap="round" />
</g>
</g>
</g>
</svg>